inDegrees=no
num_controls=7
num_derivatives=13
num_iterations=40
num_multipliers=7
num_parameters=0
num_slacks=7
num_states=26
objective=0.426473
objective_accelerations=0.059470
objective_balance=0.001151
objective_effort=0.015535
objective_height=0.344385
objective_ligament=0.005932
solver_duration=587.108098
status=Solve_Succeeded
success=true
DataType=double
version=3
OpenSimVersion=4.5
endheader
time	/jointset/ground_pelvis/pelvis_tilt/value	/jointset/ground_pelvis/pelvis_tx/value	/jointset/ground_pelvis/pelvis_ty/value	/jointset/hip_l/hip_flexion_l/value	/jointset/hip_l/hip_adduction_l/value	/jointset/hip_l/hip_rotation_l/value	/jointset/back/lumbar_extension/value	/jointset/patellofemoral_l/patellar_flexion_l/value	/jointset/knee_l/knee_flexion_l/value	/jointset/knee_l/knee_adduction_l/value	/jointset/knee_l/knee_rotation_l/value	/jointset/ankle_l/ankle_angle_l/value	/jointset/subtalar_l/subtalar_angle_l/value	/jointset/ground_pelvis/pelvis_tilt/speed	/jointset/ground_pelvis/pelvis_tx/speed	/jointset/ground_pelvis/pelvis_ty/speed	/jointset/hip_l/hip_flexion_l/speed	/jointset/hip_l/hip_adduction_l/speed	/jointset/hip_l/hip_rotation_l/speed	/jointset/back/lumbar_extension/speed	/jointset/patellofemoral_l/patellar_flexion_l/speed	/jointset/knee_l/knee_flexion_l/speed	/jointset/knee_l/knee_adduction_l/speed	/jointset/knee_l/knee_rotation_l/speed	/jointset/ankle_l/ankle_angle_l/speed	/jointset/subtalar_l/subtalar_angle_l/speed	/forceset/tau_hip_flexion_l	/forceset/tau_hip_adduction_l	/forceset/tau_hip_rotation_l	/forceset/tau_knee_flexion_l	/forceset/tau_ankle_angle_l	/forceset/tau_subtalar_angle_l	/forceset/tau_lumbar_extension	lambda_cid13_p0	lambda_cid13_p1	lambda_cid13_p2	lambda_cid13_p3	lambda_cid13_p4	lambda_cid13_p5	lambda_cid14_p0	/jointset/ground_pelvis/pelvis_tilt/accel	/jointset/ground_pelvis/pelvis_tx/accel	/jointset/ground_pelvis/pelvis_ty/accel	/jointset/hip_l/hip_flexion_l/accel	/jointset/hip_l/hip_adduction_l/accel	/jointset/hip_l/hip_rotation_l/accel	/jointset/back/lumbar_extension/accel	/jointset/patellofemoral_l/patellar_flexion_l/accel	/jointset/knee_l/knee_flexion_l/accel	/jointset/knee_l/knee_adduction_l/accel	/jointset/knee_l/knee_rotation_l/accel	/jointset/ankle_l/ankle_angle_l/accel	/jointset/subtalar_l/subtalar_angle_l/accel	gamma_cid13_p0	gamma_cid13_p1	gamma_cid13_p2	gamma_cid13_p3	gamma_cid13_p4	gamma_cid13_p5	gamma_cid14_p0
1	-0.4586546207444765	-0.003429970982757532	0.5885181475997003	1.72197584614472	-0.3453385360887953	0.131661477477005	-0.4361886777977891	1.522288749471153	1.522288749471181	0.07141608423438214	-0.174413901730063	0.4352406278690444	0.2515662317868885	-0.1435371805520712	0.001684108562853376	0.0293790775787259	0.03564572725692001	0.000631538076846402	-0.05977021090326815	-0.001882556935539606	-0.1394854210754888	-0.1394854210754913	0.005439337088059864	0.0002436619954037049	-0.04319279896110284	-0.02496062285931675	-0.2410757350041615	0.0830946984366495	-0.01537511817163581	-0.2933915809402838	-0.01602621918064313	-0.01465718753696789	0.2096291731408068	-41.27373045448282	24.41870149920853	-16.54031909189512	3.993205307453824	-544.0857925600227	-29.48079824357979	-0.02370162915939672	1.452037188927052	0.2423153845834995	2.049474778540662	-6.730423849130824	-0.2273872503416656	-1.527785576708022	-0.0500536730333622	-5.647927920263394	-5.647927920263379	-0.9217575519870275	-0.02480913127468463	-0.8593535114535651	-0.8828924510093764	-4.989902714367047e-10	-1.240528837832733e-07	-7.874980739997965e-08	-7.236602128463293e-09	-7.422975108939447e-09	-1.830531380374135e-07	1.068695759516593e-08
1.01	-0.4600180706539373	-0.003400991300180681	0.5889142402468087	1.721996715049892	-0.3453430153552546	0.1309898172165432	-0.4362089909261748	1.520611801425753	1.520611801425765	0.0714227982060975	-0.1744111951720488	0.4347657124464918	0.2512734119273036	-0.1291394525632187	0.004120387800115944	0.04983470743920802	-0.03147761652928727	-0.001520940213201242	-0.07455493540731788	-0.002170960133696235	-0.1959086282708981	-0.1959086282708999	-0.004093761527686428	0.0003004148520636459	-0.05180056264074741	-0.03359384797598989	-0.2415927736639071	0.08307986831560309	-0.01542264556528569	-0.2924658916499964	-0.01644120243865059	-0.01458072047527275	0.2099339898147276	-41.3656619721254	24.34742204830766	-16.46708436647354	3.895708159860709	-544.0120416808822	-29.41924506864016	-0.02371768851046656	1.43564390848979	0.2455648097345466	2.042893129370702	-6.704139292953493	-0.2081923050434707	-1.452782516750946	-0.01686735076886955	-5.640185877370705	-5.640185877370508	-0.9686777616531687	0.02129867827301708	-0.8630367466213108	-0.852072238016093	4.207694366324972e-11	-1.677630763951605e-07	-1.126092274416649e-07	-1.670950145862053e-08	-1.145876681506713e-08	-2.409309482617098e-07	1.356256870564595e-08
1.02	-0.4612371426225957	-0.003347392701943308	0.5895147464004359	1.721346180587263	-0.3453688222419588	0.1301705163851501	-0.4362319148280095	1.518370487556761	1.518370487556779	0.07133426284254633	-0.1744078448486559	0.4342044095970455	0.2508945528773488	-0.1146615923893432	0.006607891694957633	0.07026177888251135	-0.09863494629899372	-0.003633985971545154	-0.08929832509126887	-0.002404711634305396	-0.2523585857939475	-0.2523585857939486	-0.01361052995481707	0.0003724150741886499	-0.06047028433644604	-0.04216846093345546	-0.2421098123237934	0.08306503819459825	-0.01547017295908715	-0.2915402023597033	-0.0168561856966251	-0.01450425341348546	0.2102388064884974	-41.45974286781941	24.27317517885879	-16.38955684268664	3.789547572689484	-544.0466518745825	-29.36446234670365	-0.0237361930497231	1.468063625931531	0.2525603160994435	2.043763095104918	-6.73722104583075	-0.2195007440009929	-1.519518612688324	-0.03912333352319616	-5.653277985791387	-5.653277985791383	-0.918491514263918	-0.0217596581817608	-0.8717451146641433	-0.8711700191678449	4.634945324950987e-10	-2.115404112842859e-07	-1.454943457701015e-07	-2.588780926304814e-08	-1.558844705837831e-08	-2.968637785538332e-07	1.614266960719229e-08
1.03	-0.462311044065896	-0.003268621279335658	0.5903192947406911	1.720024086150534	-0.3454155341632764	0.1292040121505827	-0.4362566923380309	1.515564633197619	1.515564633197616	0.07115070063133137	-0.174403693121051	0.4335560355600258	0.2504302676308737	-0.1001059714913156	0.009159171433971948	0.09063468349378052	-0.1657720640821515	-0.005699767866725202	-0.1039918044636583	-0.002520952770752786	-0.308807778846694	-0.308807778846694	-0.02309589566012869	0.0004597694639215751	-0.0692211521742071	-0.05067733058070904	-0.2425045095963807	0.08308841653144158	-0.01548348564604194	-0.290355564910814	-0.0172961761422357	-0.01441355805433627	0.2104914842310402	-41.53937941492535	24.17812703563023	-16.29490044764779	3.662821562943313	-543.8286664515641	-29.28522868893179	-0.02376099418012513	1.451220559056282	0.2583215260318116	2.032069324116804	-6.700175189088371	-0.198792869525302	-1.442659316804144	0.006601137970698567	-5.640067646362431	-5.640067646362201	-0.9626711631264619	0.02420656097599729	-0.8792631791349766	-0.8389946927004308	8.83691206773191e-10	-2.553184312986892e-07	-1.783695222443213e-07	-3.506311103149891e-08	-1.971908534798728e-08	-3.527767621119549e-07	1.871975509844338e-08
